<!-- icon666.com - MILLIONS vector ICONS FREE --><svg fill="#fff" viewBox="0 0 512 512" xmlns="http://www.w3.org/2000/svg"><g id="solid"><path d="m304 384v-56h-48v24h24a8 8 0 0 1 8 8v24z"></path><path d="m218.343 170.343 24-24a8 8 0 0 1 8.808-1.7l56 24a8 8 0 0 1 4.849 7.357v32a47.8 47.8 0 0 1 -12.262 32h.262a20.023 20.023 0 0 0 20-20v-52a56 56 0 0 0 -112 0v52a20.023 20.023 0 0 0 20 20h.262a47.8 47.8 0 0 1 -12.262-32v-32a8 8 0 0 1 2.343-5.657z"></path><path d="m264 240a32.036 32.036 0 0 0 32-32v-26.725l-46.173-19.788-17.827 17.826v28.687a32.036 32.036 0 0 0 32 32zm16-56a8 8 0 1 1 -8 8 8 8 0 0 1 8-8zm-22.211 27.074a27.944 27.944 0 0 0 12.422 0 8 8 0 1 1 3.578 15.6 44.029 44.029 0 0 1 -19.578 0 8 8 0 1 1 3.578-15.595zm-9.789-27.074a8 8 0 1 1 -8 8 8 8 0 0 1 8-8z"></path><path d="m264 256a48.168 48.168 0 0 1 -8-.679v16.679a7.987 7.987 0 0 1 -2.948 6.2l10.948 18.251 10.948-18.251a7.987 7.987 0 0 1 -2.948-6.2v-16.679a48.168 48.168 0 0 1 -8 .679z"></path><path d="m304 280h-11.47l-19.2 32h30.67z"></path><path d="m208 310.7v-29.324a24.039 24.039 0 0 0 -16 22.624v70a10.011 10.011 0 0 0 10 10h70v-16h-20.687l-5.656 5.657a8 8 0 0 1 -5.657 2.343h-24a8 8 0 0 1 -8-8v-14.193a50.821 50.821 0 0 1 -1.933-37.307z"></path><path d="m376 144h32a8 8 0 0 1 8 8v17.052l28.438-18.958a7.987 7.987 0 0 0 3.562-6.657v-103.437a8.009 8.009 0 0 0 -8-8h-64a8.009 8.009 0 0 0 -8 8v96a8.009 8.009 0 0 0 8 8zm16-96h32a8 8 0 0 1 0 16h-32a8 8 0 0 1 0-16zm0 32h25.079a8 8 0 0 1 0 16h-25.079a8 8 0 0 1 0-16zm0 32h8a8 8 0 0 1 0 16h-8a8 8 0 0 1 0-16z"></path><path d="m198.246 448-12 32h139.508l-12-32z"></path><path d="m32 422a10.011 10.011 0 0 0 10 10h428a10.011 10.011 0 0 0 10-10v-22h-448z"></path><path d="m224 280v32a8.016 8.016 0 0 1 -.41 2.529l-2.343 7.03a34.953 34.953 0 0 0 1.908 26.863 7.994 7.994 0 0 1 .845 3.578v8h12.687l3.313-3.314v-36.686a8 8 0 0 1 8-8h6.67l-19.2-32z"></path><path d="m347.071 326a8 8 0 0 0 13.082-4.227l15.552-75.553a8 8 0 0 1 3.456-5.082l19.028-12.448a3.987 3.987 0 0 0 1.811-3.345v-1.511h-27.479a9.995 9.995 0 0 0 -9.84 8.219c-.014.074-.029.148-.044.222l-12.529 59.54a8 8 0 0 1 -11.944 5.213l-18.164-10.899v21.607l26.04 17.493a7.942 7.942 0 0 1 1.031.771z"></path><path d="m152 112h-80a8.009 8.009 0 0 0 -8 8v64a8.009 8.009 0 0 0 8 8h80a8.009 8.009 0 0 0 8-8v-64a8.009 8.009 0 0 0 -8-8zm-11.884 46.86-40 24a8 8 0 0 1 -12.116-6.86v-48a8 8 0 0 1 12.116-6.86l40 24a8 8 0 0 1 0 13.72z"></path><path d="m104 161.871 16.451-9.871-16.451-9.871z"></path><path d="m470 80h-6v63.437a23.952 23.952 0 0 1 -10.688 19.969l-40.874 27.25a8 8 0 0 1 -12.438-6.656v-24h-24a24.028 24.028 0 0 1 -24-24v-56h-310a10.011 10.011 0 0 0 -10 10v294h146a25.843 25.843 0 0 1 -2-10v-70a40.045 40.045 0 0 1 40-40h24v-8h-12a36.04 36.04 0 0 1 -36-36v-52a72 72 0 0 1 144 0v52a36.04 36.04 0 0 1 -36 36h-12v8h24a7.946 7.946 0 0 1 4.067 1.12c.016.009.033.011.049.02l20.649 12.389 10.194-48.447a25.983 25.983 0 0 1 25.562-21.248h35.479a8 8 0 0 1 8 8v9.511a19.941 19.941 0 0 1 -9.051 16.737l-16.243 10.626-14.9 72.361c-.008.039-.017.077-.026.117a24.02 24.02 0 0 1 -23.38 18.819 24.1 24.1 0 0 1 -15.458-5.612l-12.44-8.357a50.8 50.8 0 0 1 -4.5 23.771v30.193h159.998v-294a10.011 10.011 0 0 0 -10-10zm-318 272h-40a8 8 0 0 1 -16 0h-24a8 8 0 0 1 0-16h24a8 8 0 0 1 16 0h40a8 8 0 0 1 0 16zm-80-64h24a8 8 0 0 1 0 16h-24a8 8 0 0 1 0-16zm-8-24a8 8 0 0 1 8-8h40a8 8 0 0 1 0 16h-40a8 8 0 0 1 -8-8zm88 40h-32a8 8 0 0 1 0-16h32a8 8 0 0 1 0 16zm0-32h-16a8 8 0 0 1 0-16h16a8 8 0 0 1 0 16zm0-32h-80a8 8 0 0 1 0-16h80a8 8 0 0 1 0 16zm24-56a24.028 24.028 0 0 1 -24 24h-80a24.028 24.028 0 0 1 -24-24v-64a24.028 24.028 0 0 1 24-24h80a24.028 24.028 0 0 1 24 24z"></path></g></svg>