<?xml version="1.0" standalone="no"?>
<!DOCTYPE svg PUBLIC "-//W3C//DTD SVG 20010904//EN"
 "http://www.w3.org/TR/2001/REC-SVG-20010904/DTD/svg10.dtd">
<svg version="1.0" xmlns="http://www.w3.org/2000/svg"
 width="900.000000pt" height="570.000000pt" viewBox="0 0 900.000000 570.000000"
 preserveAspectRatio="xMidYMid meet">

<g transform="translate(0.000000,570.000000) scale(0.100000,-0.100000)"
fill="#c01414" stroke="none">
<path d="M4355 5431 c-158 -26 -298 -86 -425 -182 -148 -112 -191 -174 -530
-769 -20 -36 -62 -108 -92 -160 -30 -52 -106 -183 -168 -290 -62 -107 -147
-253 -188 -325 -137 -236 -184 -319 -230 -400 -24 -44 -48 -85 -53 -91 -5 -6
-26 -42 -47 -80 -22 -38 -64 -112 -94 -164 -137 -236 -171 -295 -260 -450
-129 -225 -273 -474 -382 -660 -130 -224 -151 -265 -185 -366 -109 -322 -28
-688 208 -938 146 -154 323 -248 526 -281 138 -23 4011 -22 4140 0 173 31 340
115 472 239 271 255 368 632 252 981 -31 92 -47 124 -139 280 -29 50 -96 164
-148 255 -52 91 -120 208 -150 260 -30 52 -72 124 -92 160 -40 69 -279 484
-427 740 -91 157 -233 404 -337 583 -30 53 -81 141 -112 195 -31 53 -109 187
-172 297 -63 110 -158 274 -210 365 -53 91 -110 190 -127 220 -118 207 -178
285 -290 377 -94 77 -243 153 -360 184 -89 23 -295 34 -380 20z m472 -1153
c54 -36 85 -99 84 -175 0 -60 -37 -414 -71 -683 -11 -85 -33 -281 -50 -435
-16 -154 -34 -314 -40 -355 -5 -41 -12 -102 -16 -135 -26 -247 -47 -302 -133
-347 -71 -37 -131 -37 -202 0 -45 23 -58 37 -81 82 -29 60 -45 172 -108 755
-17 154 -37 330 -45 390 -29 219 -76 671 -76 727 0 63 25 131 59 161 47 43 83
47 368 44 l271 -2 40 -27z m-192 -2483 c78 -26 144 -74 191 -138 54 -73 74
-138 74 -242 0 -116 -27 -190 -97 -265 -94 -102 -224 -147 -371 -129 -118 15
-245 108 -300 219 -25 51 -27 65 -27 175 0 103 3 127 22 168 87 187 307 280
508 212z"/>
</g>
</svg>
