<?xml version="1.0" standalone="no"?>
<!DOCTYPE svg PUBLIC "-//W3C//DTD SVG 20010904//EN"
 "http://www.w3.org/TR/2001/REC-SVG-20010904/DTD/svg10.dtd">
<svg version="1.0" xmlns="http://www.w3.org/2000/svg"
 width="318.000000pt" height="208.000000pt" viewBox="0 0 318.000000 208.000000"
 preserveAspectRatio="xMidYMid meet">

<g transform="translate(0.000000,208.000000) scale(0.100000,-0.100000)"
fill="#000000" stroke="none">
<path fill="#ff7300" d="M1500 2034 c-47 -18 -152 -58 -235 -88 -82 -30 -249 -91 -370 -136
-121 -45 -281 -103 -355 -130 -74 -26 -155 -56 -179 -66 l-44 -17 209 -78
c115 -43 217 -80 227 -82 16 -5 17 -25 17 -255 l0 -250 48 -30 c83 -54 292
-150 371 -171 195 -52 440 -67 626 -36 183 29 371 101 528 200 l57 37 0 248 0
248 63 21 c34 12 138 50 231 85 l169 63 -59 23 c-32 12 -113 41 -179 65 -66
24 -219 80 -340 125 -121 45 -287 106 -370 136 -82 30 -184 68 -225 84 -41 15
-82 30 -90 33 -8 3 -53 -10 -100 -29z m270 -145 c91 -33 237 -87 325 -119 88
-32 221 -81 295 -109 74 -28 142 -54 150 -57 21 -8 1 -18 -133 -65 -109 -39
-279 -102 -639 -236 l-178 -66 -177 66 c-361 134 -531 197 -640 236 -62 22
-120 44 -130 50 -16 9 -16 10 7 19 219 82 447 167 625 232 121 44 236 87 255
94 19 8 44 14 55 15 11 0 94 -27 185 -60z m-650 -589 c102 -37 249 -91 327
-120 l142 -52 143 52 c79 29 229 84 333 122 105 39 200 72 213 75 l22 5 0
-195 0 -196 -68 -40 c-196 -114 -410 -171 -648 -171 -216 0 -384 41 -589 144
l-120 61 -3 190 c-1 104 0 195 2 202 4 10 12 10 33 2 15 -6 111 -42 213 -79z"/>
<path fill="#ff7300" d="M300 669 c-127 -171 -229 -313 -226 -316 2 -3 71 5 153 17 186 27
463 37 599 21 277 -32 493 -125 653 -279 77 -74 78 -80 6 -32 -103 70 -267
138 -430 178 -239 60 -521 57 -752 -8 -82 -23 -250 -93 -267 -111 -8 -9 -8
-10 0 -6 33 19 287 40 479 40 305 0 561 -32 894 -114 90 -22 165 -39 166 -37
9 9 -99 151 -161 211 -136 133 -310 224 -524 274 -129 30 -372 42 -499 24 -46
-6 -86 -9 -89 -7 -2 3 33 74 78 158 46 84 100 186 122 226 21 39 37 72 34 72
-2 0 -108 -140 -236 -311z"/>
<path fill="#ff7300" d="M2685 895 c27 -49 82 -152 123 -228 41 -76 72 -140 70 -143 -3 -2
-43 1 -89 7 -127 18 -370 6 -499 -24 -214 -50 -388 -141 -524 -274 -62 -60
-170 -202 -161 -211 1 -2 76 15 166 37 333 82 589 114 894 114 192 0 446 -21
479 -40 8 -4 8 -3 0 6 -17 19 -181 86 -268 111 -44 12 -118 28 -165 36 -102
17 -334 18 -434 3 -209 -31 -444 -116 -582 -209 -72 -48 -71 -42 6 32 160 154
376 247 653 279 136 16 413 6 599 -21 82 -12 151 -20 153 -17 5 5 -423 587
-453 617 -9 8 6 -25 32 -75z"/>
</g>
</svg>
